<svg xmlns="http://www.w3.org/2000/svg" class="svg-icon-store">
    <symbol id="i-check-circle" viewBox="0 0 24 24">
       <title>check-circle</title> <path d="M22 10.1c-0.6 0-1 0.4-1 1v0.9c0 5-4 9-9 9 0 0 0 0 0 0-5 0-9-4-9-9s4-9 9-9c0 0 0 0 0 0 1.3 0 2.5 0.3 3.7 0.8 0.5 0.2 1.1 0 1.3-0.5s0-1.1-0.5-1.3c-1.4-0.6-2.9-1-4.5-1 0 0 0 0 0 0-6.1 0-11 4.9-11 11s4.9 11 11 11c0 0 0 0 0 0 6.1 0 11-4.9 11-11v-0.9c0-0.6-0.4-1-1-1z"/> <path d="M9.7 10.3c-0.4-0.4-1-0.4-1.4 0s-0.4 1 0 1.4l3 3c0.2 0.2 0.4 0.3 0.7 0.3s0.5-0.1 0.7-0.3l10-10c0.4-0.4 0.4-1 0-1.4s-1-0.4-1.4 0l-9.3 9.3-2.3-2.3z"/> 
    </symbol>
    <symbol id="i-external-link" viewBox="0 0 24 24">
       <title>external-link</title> <path d="M18 12c-0.6 0-1 0.4-1 1v6c0 0.6-0.4 1-1 1h-11c-0.6 0-1-0.4-1-1v-11c0-0.6 0.4-1 1-1h6c0.6 0 1-0.4 1-1s-0.4-1-1-1h-6c-1.7 0-3 1.3-3 3v11c0 1.7 1.3 3 3 3h11c1.7 0 3-1.3 3-3v-6c0-0.6-0.4-1-1-1z"/> <path d="M21.9 2.6c-0.1-0.2-0.3-0.4-0.5-0.5-0.1-0.1-0.3-0.1-0.4-0.1h-6c-0.6 0-1 0.4-1 1s0.4 1 1 1h3.6l-9.3 9.3c-0.4 0.4-0.4 1 0 1.4 0.2 0.2 0.4 0.3 0.7 0.3s0.5-0.1 0.7-0.3l9.3-9.3v3.6c0 0.6 0.4 1 1 1s1-0.4 1-1v-6c0-0.1 0-0.3-0.1-0.4z"/> 
    </symbol>
    <symbol id="i-facebook" viewBox="0 0 32 32">
       <title>facebook</title> <path d="M19 6h5v-6h-5c-3.86 0-7 3.14-7 7v3h-4v6h4v16h6v-16h5l1-6h-6v-3c0-0.542 0.458-1 1-1z"/> 
    </symbol>
    <symbol id="i-google-plus" viewBox="0 0 32 32">
       <title>google-plus</title> <path d="M10.181 14.294v3.494h5.775c-0.231 1.5-1.744 4.394-5.775 4.394-3.475 0-6.313-2.881-6.313-6.431s2.838-6.431 6.313-6.431c1.981 0 3.3 0.844 4.056 1.569l2.762-2.662c-1.775-1.656-4.075-2.662-6.819-2.662-5.631 0.006-10.181 4.556-10.181 10.188s4.55 10.181 10.181 10.181c5.875 0 9.775-4.131 9.775-9.95 0-0.669-0.075-1.181-0.163-1.688h-9.613z"/> <path d="M32 14h-3v-3h-3v3h-3v3h3v3h3v-3h3z"/> 
    </symbol>
    <symbol id="i-instagram" viewBox="0 0 20 20">
       <title>instagram</title> <path d="M17 1h-14c-1.1 0-2 0.9-2 2v14c0 1.101 0.9 2 2 2h14c1.1 0 2-0.899 2-2v-14c0-1.1-0.9-2-2-2zM9.984 15.523c3.059 0 5.538-2.481 5.538-5.539 0-0.338-0.043-0.664-0.103-0.984h1.581v7.216c0 0.382-0.31 0.69-0.693 0.69h-12.614c-0.383 0-0.693-0.308-0.693-0.69v-7.216h1.549c-0.061 0.32-0.104 0.646-0.104 0.984 0 3.059 2.481 5.539 5.539 5.539zM6.523 9.984c0-1.912 1.55-3.461 3.462-3.461s3.462 1.549 3.462 3.461-1.551 3.462-3.462 3.462c-1.913 0-3.462-1.55-3.462-3.462zM16.307 6h-1.615c-0.382 0-0.692-0.312-0.692-0.692v-1.617c0-0.382 0.31-0.691 0.691-0.691h1.615c0.384 0 0.694 0.309 0.694 0.691v1.616c0 0.381-0.31 0.693-0.693 0.693z"/> 
    </symbol>
    <symbol id="i-linkedin2" viewBox="0 0 32 32">
       <title>linkedin2</title> <path d="M12 12h5.535v2.837h0.079c0.77-1.381 2.655-2.837 5.464-2.837 5.842 0 6.922 3.637 6.922 8.367v9.633h-5.769v-8.54c0-2.037-0.042-4.657-3.001-4.657-3.005 0-3.463 2.218-3.463 4.509v8.688h-5.767v-18z"/> <path d="M2 12h6v18h-6v-18z"/> <path d="M8 7c0 1.657-1.343 3-3 3s-3-1.343-3-3c0-1.657 1.343-3 3-3s3 1.343 3 3z"/> 
    </symbol>
    <symbol id="i-odnoklassniki" viewBox="0 0 20 28">
       <title>odnoklassniki</title> <path d="M10 14.172c-3.906 0-7.094-3.172-7.094-7.078 0-3.922 3.187-7.094 7.094-7.094s7.094 3.172 7.094 7.094c0 3.906-3.187 7.078-7.094 7.078zM10 3.594c-1.922 0-3.484 1.563-3.484 3.5 0 1.922 1.563 3.484 3.484 3.484s3.484-1.563 3.484-3.484c0-1.937-1.563-3.5-3.484-3.5zM18.172 15.031c0.688 1.406-0.094 2.078-1.875 3.234-1.5 0.953-3.563 1.328-4.922 1.469l1.141 1.125 4.172 4.172c0.625 0.641 0.625 1.672 0 2.297l-0.187 0.203c-0.641 0.625-1.672 0.625-2.312 0-1.047-1.062-2.578-2.594-4.172-4.188l-4.172 4.188c-0.641 0.625-1.672 0.625-2.297 0l-0.187-0.203c-0.641-0.625-0.641-1.656 0-2.297 1.062-1.062 2.578-2.594 4.172-4.172l1.125-1.125c-1.344-0.141-3.437-0.5-4.953-1.469-1.781-1.156-2.562-1.828-1.875-3.234 0.406-0.797 1.516-1.469 2.984-0.313 0 0 1.984 1.578 5.187 1.578s5.187-1.578 5.187-1.578c1.469-1.156 2.578-0.484 2.984 0.313z"/> 
    </symbol>
    <symbol id="i-paper-plane" viewBox="0 0 28 28">
       <title>paper-plane</title> <path d="M27.563 0.172c0.328 0.234 0.484 0.609 0.422 1l-4 24c-0.047 0.297-0.234 0.547-0.5 0.703-0.141 0.078-0.313 0.125-0.484 0.125-0.125 0-0.25-0.031-0.375-0.078l-7.078-2.891-3.781 4.609c-0.187 0.234-0.469 0.359-0.766 0.359-0.109 0-0.234-0.016-0.344-0.063-0.391-0.141-0.656-0.516-0.656-0.938v-5.453l13.5-16.547-16.703 14.453-6.172-2.531c-0.359-0.141-0.594-0.469-0.625-0.859-0.016-0.375 0.172-0.734 0.5-0.922l26-15c0.156-0.094 0.328-0.141 0.5-0.141 0.203 0 0.406 0.063 0.562 0.172z"/> 
    </symbol>
    <symbol id="i-tumblr" viewBox="0 0 32 32">
       <title>tumblr</title> <path d="M18.001 14l-0 7.318c0 1.857-0.024 2.927 0.173 3.453 0.195 0.524 0.685 1.067 1.218 1.381 0.709 0.425 1.517 0.637 2.428 0.637 1.62 0 2.577-0.214 4.179-1.267v4.811c-1.366 0.642-2.558 1.019-3.666 1.279-1.109 0.258-2.308 0.388-3.596 0.388-1.463 0-2.327-0.184-3.45-0.552-1.124-0.371-2.083-0.9-2.876-1.579-0.795-0.685-1.344-1.413-1.652-2.182s-0.46-1.888-0.46-3.351v-11.222h-4.295v-4.531c1.256-0.408 2.661-0.993 3.556-1.755 0.899-0.764 1.618-1.678 2.16-2.748 0.543-1.067 0.917-2.429 1.121-4.079h5.159l-0 8h7.999v6h-7.999z"/> 
    </symbol>
    <symbol id="i-twitter" viewBox="0 0 32 32">
       <title>twitter</title> <path d="M32 7.075c-1.175 0.525-2.444 0.875-3.769 1.031 1.356-0.813 2.394-2.1 2.887-3.631-1.269 0.75-2.675 1.3-4.169 1.594-1.2-1.275-2.906-2.069-4.794-2.069-3.625 0-6.563 2.938-6.563 6.563 0 0.512 0.056 1.012 0.169 1.494-5.456-0.275-10.294-2.888-13.531-6.862-0.563 0.969-0.887 2.1-0.887 3.3 0 2.275 1.156 4.287 2.919 5.463-1.075-0.031-2.087-0.331-2.975-0.819 0 0.025 0 0.056 0 0.081 0 3.181 2.263 5.838 5.269 6.437-0.55 0.15-1.131 0.231-1.731 0.231-0.425 0-0.831-0.044-1.237-0.119 0.838 2.606 3.263 4.506 6.131 4.563-2.25 1.762-5.075 2.813-8.156 2.813-0.531 0-1.050-0.031-1.569-0.094 2.913 1.869 6.362 2.95 10.069 2.95 12.075 0 18.681-10.006 18.681-18.681 0-0.287-0.006-0.569-0.019-0.85 1.281-0.919 2.394-2.075 3.275-3.394z"/> 
    </symbol>
    <symbol id="i-vk" viewBox="0 0 31 28">
       <title>vk</title> <path d="M29.953 8.125c0.234 0.641-0.5 2.141-2.344 4.594-3.031 4.031-3.359 3.656-0.859 5.984 2.406 2.234 2.906 3.313 2.984 3.453 0 0 1 1.75-1.109 1.766l-4 0.063c-0.859 0.172-2-0.609-2-0.609-1.5-1.031-2.906-3.703-4-3.359 0 0-1.125 0.359-1.094 2.766 0.016 0.516-0.234 0.797-0.234 0.797s-0.281 0.297-0.828 0.344h-1.797c-3.953 0.25-7.438-3.391-7.438-3.391s-3.813-3.938-7.156-11.797c-0.219-0.516 0.016-0.766 0.016-0.766s0.234-0.297 0.891-0.297l4.281-0.031c0.406 0.063 0.688 0.281 0.688 0.281s0.25 0.172 0.375 0.5c0.703 1.75 1.609 3.344 1.609 3.344 1.563 3.219 2.625 3.766 3.234 3.437 0 0 0.797-0.484 0.625-4.375-0.063-1.406-0.453-2.047-0.453-2.047-0.359-0.484-1.031-0.625-1.328-0.672-0.234-0.031 0.156-0.594 0.672-0.844 0.766-0.375 2.125-0.391 3.734-0.375 1.266 0.016 1.625 0.094 2.109 0.203 1.484 0.359 0.984 1.734 0.984 5.047 0 1.062-0.203 2.547 0.562 3.031 0.328 0.219 1.141 0.031 3.141-3.375 0 0 0.938-1.625 1.672-3.516 0.125-0.344 0.391-0.484 0.391-0.484s0.25-0.141 0.594-0.094l4.5-0.031c1.359-0.172 1.578 0.453 1.578 0.453z"/> 
    </symbol>
  </svg>